# xmcd
#
# Track frame offsets:
#	150
#	20640
#	38929
#	53536
#	73248
#	92213
#	108570
#	122509
#	138947
#	152776
#	166245
#	180054
#
# Disc length: 2660 seconds
#
# Revision: 0
# Processed by: cddbd v1.5.2PL0 Copyright (c) Steve Scherf et al.
# Submitted via: audiograbber 1.83.01
#
DISCID=980a620c
DTITLE=Adam and Eve - Alle Wege Dieser Welt
DYEAR=1978
DGENRE=Schlager
TTITLE0=Lailola
TTITLE1=Alle Wege Dieser Welt
TTITLE2=Pardon My Love
TTITLE3=Geh' Nicht Von Mir
TTITLE4=Adler Und Taube
TTITLE5=Heut' Liegt Ein Lachen In Der Luft
TTITLE6=Ungarische Nächte
TTITLE7=In Den Alten Gassen
TTITLE8=Es Ist Schön, Mit Dir Zu Leben
TTITLE9=Olga
TTITLE10=Vielleicht Bist Du Für Mich Noch Nicht Die Grosse Liebe
TTITLE11=Wo Die Blumen - Wo Die Bäumen
EXTD=
EXTT0=
EXTT1=
EXTT2=
EXTT3=
EXTT4=
EXTT5=
EXTT6=
EXTT7=
EXTT8=
EXTT9=
EXTT10=
EXTT11=
PLAYORDER=
